<svg version="1.2" xmlns="http://www.w3.org/2000/svg" viewBox="0 0 497 305" width="100" height="61.5">
	<defs>
		<linearGradient id="g1" x2="1" gradientUnits="userSpaceOnUse" gradientTransform="matrix(912.089,0,0,266.536,-291.29,.12)">
			<stop offset="0" stop-color="#20418e"/>
			<stop offset="1" stop-color="#00afe1"/>
		</linearGradient>
		<linearGradient id="g2" x2="1" gradientUnits="userSpaceOnUse" gradientTransform="matrix(912.089,0,0,266.527,-291.29,217.351)">
			<stop offset="0" stop-color="#20418e"/>
			<stop offset="1" stop-color="#00afe1"/>
		</linearGradient>
		<linearGradient id="g3" x2="1" gradientUnits="userSpaceOnUse" gradientTransform="matrix(912.082,0,0,169.967,-291.287,107.491)">
			<stop offset="0" stop-color="#20418e"/>
			<stop offset="1" stop-color="#00afe1"/>
		</linearGradient>
	</defs>
	<style>
		.s0 { fill: #20418e } 
		.s1 { fill: url(#g1) } 
		.s2 { fill: url(#g2) } 
		.s3 { fill: url(#g3) } 
	</style>
	<g id="Layer 1">
		<path id="&lt;Compound Path&gt;" class="s0" d="m-186.81 419.54h84.27v26.29h-53.68v8.67h53.68v26.29h-53.68v8.66h53.68v26.43h-84.27z"/>
		<path id="&lt;Compound Path&gt;" class="s0" d="m-21.33 461.8v54.08h-30.59v-96.34h30.59l40.39 53.67v-53.67h30.6v96.34h-30.6z"/>
		<path id="&lt;Compound Path&gt;" class="s0" d="m95.04 419.54h84.26v26.29h-53.68v8.67h53.68v26.29h-53.68v8.66h53.68v26.43h-84.26z"/>
		<path id="&lt;Compound Path&gt;" fill-rule="evenodd" class="s0" d="m225.2 419.54h70.33q6.85 0 12.21 2.48 5.34 2.48 9.07 6.74 3.75 4.26 5.75 9.85 2.01 5.57 2.02 11.9 0 7.02-2.2 12.45-2.2 5.44-5.87 9.16-3.68 3.71-8.52 5.91-4.84 2.2-10 2.76l26.44 35.09h-31.47l-26.33-34.97h-10.71v34.97h-30.72zm30.59 34.96h34.32q1.43-0.01 2.64-1.18 1.24-1.15 1.24-3.09-0.01-1.94-1.12-3.16-1.08-1.25-2.89-1.25h-34.19z"/>
		<path id="&lt;Compound Path&gt;" class="s0" d="m462.93 419.54v26.29l-51.25 43.75h51.89v26.3h-101.84v-26.3l51.76-43.75h-51.76v-26.29z"/>
		<path id="&lt;Compound Path&gt;" fill-rule="evenodd" class="s0" d="m618.29 515.88h-34.45l-6.32-14.33h-41.95l-6.72 14.33h-34.18l44.64-96.34h34.33zm-70.59-40.61h17.29l-8.63-18.98z"/>
		<path id="&lt;Compound Path&gt;" class="s0" d="m652.88 419.54h30.61v96.34h-30.61z"/>
		<path id="&lt;Path&gt;" class="s0" d="m684.8 390.16c0 9.22-7.23 16.68-16.16 16.68-8.93 0-16.15-7.46-16.15-16.68 0-9.21 7.22-16.68 16.15-16.68 8.93 0 16.16 7.47 16.16 16.68z"/>
		<path id="&lt;Path&gt;" class="s1" d="m344.18 7.55c-21.55 14.09-47.29 24.71-62.03 30.25-4.75 0.25-9.75 0.42-14.75 0.5-8.81-0.08-17.24-0.45-24.5-1.12-15.02-5.71-39.68-16.1-60.39-29.65-0.05 0.26-0.08 0.4-0.11 0.63-7.13-5.03-15.8-8.04-25.18-8.04-24.22 0-43.84 19.62-43.84 43.82 0 24.21 19.62 43.82 43.84 43.82 10.05 0 19.23-3.54 26.62-9.25 23.04-17.33 42.48-26.45 55.54-31.3 7.81-0.93 17.84-1.31 28.02-1.4 6.25 0.1 12.29 0.36 17.98 0.7 13.01 4.64 33.27 13.81 57.47 32.01 7.4 5.72 16.57 9.25 26.63 9.25 24.21 0 43.84-19.61 43.84-43.8 0-24.23-19.63-43.84-43.84-43.84-9.39 0-18.06 3.02-25.19 8.05-0.03-0.23-0.07-0.38-0.11-0.63z"/>
		<path id="&lt;Path&gt;" class="s2" d="m344.18 224.79c-21.55 14.07-47.29 24.69-62.03 30.24-4.75 0.24-9.75 0.41-14.75 0.5-8.81-0.09-17.24-0.44-24.5-1.13-15.02-5.7-39.68-16.1-60.39-29.63-0.05 0.24-0.08 0.4-0.11 0.62-7.13-5.04-15.8-8.04-25.18-8.04-24.22 0-43.84 19.61-43.84 43.82 0 24.21 19.62 43.81 43.84 43.81 10.05 0 19.23-3.52 26.62-9.24 23.04-17.33 42.48-26.45 55.54-31.3 7.81-0.93 17.84-1.31 28.02-1.41 6.25 0.11 12.29 0.37 17.98 0.73 13.01 4.62 33.27 13.8 57.47 31.99 7.4 5.72 16.57 9.25 26.63 9.25 24.21 0 43.84-19.61 43.84-43.82 0-24.2-19.63-43.81-43.84-43.81-9.39 0-18.06 3.01-25.19 8.04-0.03-0.24-0.07-0.38-0.11-0.62z"/>
		<path id="&lt;Path&gt;" class="s3" d="m426.21 116.73c-26.2 19.7-48.04 29-60.78 33.21-3.89 0.19-7.97 0.34-12.09 0.4-5.17-0.03-10.21-0.19-14.95-0.45-14.87-5.62-40.21-16.14-61.45-30.03-0.04 0.24-0.06 0.38-0.11 0.61-4.88-3.46-10.68-5.47-16.73-6.7-1.7-0.41-3.48-0.63-5.23-0.83-1.11-0.09-2.09-0.5-3.21-0.5-0.34 0-0.62 0.08-0.94 0.1-0.31-0.02-0.59-0.1-0.91-0.1-1.13 0-2.12 0.41-3.23 0.5-1.75 0.2-3.53 0.42-5.22 0.83-6.07 1.23-11.84 3.24-16.74 6.7-0.05-0.23-0.07-0.37-0.12-0.61-20.93 13.68-45.86 24.12-60.81 29.79-5.2 0.36-10.73 0.6-16.47 0.69-6.11-0.06-11.92-0.29-17.34-0.65-14.96-5.66-39.96-16.12-60.92-29.83-0.05 0.24-0.07 0.38-0.12 0.61-7.13-5.02-15.8-8.03-25.19-8.03-24.21 0-43.82 19.61-43.82 43.83 0 24.2 19.61 43.8 43.82 43.8 10.07 0 19.24-3.51 26.65-9.24 26.71-20.1 48.81-29.33 61.41-33.42 4.91-0.26 10.14-0.44 15.51-0.5 5.02 0.09 9.97 0.28 14.65 0.55 12.61 4.1 34.69 13.34 61.32 33.37 4.98 3.87 10.97 6.17 17.3 7.63 2.18 0.57 4.43 0.94 6.74 1.17 0.9 0.06 1.67 0.44 2.58 0.44 0.32 0 0.6-0.08 0.91-0.08 0.32 0 0.6 0.08 0.94 0.08 0.89 0 1.66-0.38 2.55-0.44 2.32-0.23 4.59-0.6 6.77-1.17 6.32-1.46 12.3-3.76 17.31-7.63 27.15-20.44 49.5-29.61 61.97-33.57 4.19-0.19 8.63-0.31 13.08-0.35 3.98 0.08 7.95 0.22 11.77 0.39 14.67 5.51 40.65 16.19 62.43 30.41 0.03-0.25 0.06-0.4 0.1-0.63 7.12 5.04 15.8 8.04 25.18 8.04 24.22 0 43.83-19.6 43.83-43.82 0-24.2-19.61-43.81-43.83-43.81-10.06 0-19.25 3.53-26.61 9.24z"/>
	</g>
</svg>